<svg width="1000" height="229" xmlns="http://www.w3.org/2000/svg" version="1.1">
 <g>
  <title>Layer 1</title>

  <g id="svg_1078">
   <g id="svg_13" transform="matrix(1.67479 0 0 1.67479 412.881 267.937)">
    <svg id="svg_12" data-fill-palette-color="accent" class="icon-none" width="100" height="100" xml:space="preserve" enable-background="new 0 0 100 100" viewBox="0 0 100 100" y="-139.46629" x="56.03356" version="1.1" xmlns:xlink="http://www.w3.org/1999/xlink" xmlns="http://www.w3.org/2000/svg">
     <path id="svg_33" data-fill-palette-color="accent" fill="#ff4993" d="m50,44.039c-3.286,0 -5.958,2.672 -5.958,5.958c0,3.289 2.673,5.964 5.958,5.964c3.286,0 5.964,-2.675 5.964,-5.964c0,-3.286 -2.678,-5.958 -5.964,-5.958zm0,9.376c-1.882,0 -3.415,-1.535 -3.415,-3.418c0,-1.882 1.533,-3.415 3.415,-3.415c1.882,0 3.415,1.533 3.415,3.415c0,1.883 -1.533,3.418 -3.415,3.418zm45,-3.418c0,-5.732 -5.389,-10.185 -13.374,-13.277c3.861,-8.432 4.42,-15.46 0.769,-19.115c-1.656,-1.659 -4.006,-2.498 -6.975,-2.498c-3.463,0 -7.62,1.151 -12.153,3.237c-3.092,-7.969 -7.539,-13.341 -13.267,-13.341c-5.727,0 -10.174,5.372 -13.267,13.342c-4.533,-2.086 -8.696,-3.237 -12.159,-3.237c-2.969,0 -5.313,0.839 -6.97,2.498c-3.538,3.539 -3.296,10.269 0.672,18.954c0.021,0.059 0.054,0.118 0.081,0.172c-7.974,3.091 -13.357,7.538 -13.357,13.265c0,5.738 5.388,10.186 13.374,13.28c-3.855,8.433 -4.42,15.464 -0.769,19.115c1.657,1.656 4.001,2.497 6.97,2.497c3.463,0 7.625,-1.153 12.159,-3.237c3.092,7.973 7.54,13.345 13.267,13.345c5.728,0 10.175,-5.372 13.262,-13.345c4.538,2.09 8.695,3.24 12.158,3.24c2.969,0 5.318,-0.844 6.975,-2.5c3.539,-3.539 3.302,-10.267 -0.667,-18.951c-0.026,-0.057 -0.059,-0.113 -0.086,-0.172c7.979,-3.092 13.357,-7.54 13.357,-13.272zm-19.58,-32.344c2.27,0 4.007,0.589 5.174,1.75c2.688,2.689 2.21,8.744 -1.361,16.461c-3.694,-1.234 -7.824,-2.21 -12.196,-2.904c-0.693,-4.372 -1.672,-8.502 -2.903,-12.202c4.262,-1.991 8.145,-3.105 11.286,-3.105zm-12.143,32.339c0,3.003 -0.129,5.9 -0.354,8.68c-0.684,0.72 -1.355,1.438 -2.076,2.161c-0.715,0.71 -1.431,1.403 -2.156,2.092c-2.775,0.227 -5.679,0.353 -8.68,0.353c-3.017,0 -5.921,-0.129 -8.701,-0.353c-0.715,-0.683 -1.43,-1.371 -2.14,-2.081c-0.715,-0.715 -1.403,-1.446 -2.092,-2.172c-0.226,-2.78 -0.355,-5.677 -0.355,-8.68c0,-3 0.129,-5.888 0.35,-8.666c0.688,-0.726 1.382,-1.455 2.097,-2.169c0.71,-0.71 1.425,-1.398 2.14,-2.082c2.78,-0.226 5.685,-0.355 8.701,-0.355c3.001,0 5.899,0.129 8.68,0.355c0.726,0.686 1.441,1.379 2.156,2.092c0.71,0.715 1.393,1.436 2.076,2.156c0.225,2.778 0.354,5.668 0.354,8.669zm-6.539,-18.141c-1.538,-1.342 -3.076,-2.627 -4.614,-3.832c2.522,-1.834 5.007,-3.46 7.416,-4.854c0.865,2.702 1.613,5.751 2.21,9.091c-1.656,-0.174 -3.334,-0.306 -5.012,-0.405zm-4.151,-0.173c-0.86,-0.019 -1.721,-0.045 -2.576,-0.045c-0.866,0 -1.731,0.027 -2.597,0.045c0.86,-0.707 1.726,-1.396 2.586,-2.062c0.866,0.667 1.727,1.355 2.587,2.062zm-9.325,0.173c-1.683,0.102 -3.355,0.234 -5.017,0.409c0.602,-3.342 1.35,-6.392 2.215,-9.091c2.409,1.393 4.899,3.017 7.416,4.851c-1.538,1.204 -3.082,2.489 -4.614,3.831zm-11.411,11.424c-1.35,1.541 -2.641,3.081 -3.834,4.614c-1.828,-2.506 -3.436,-4.993 -4.834,-7.432c2.694,-0.86 5.738,-1.608 9.078,-2.21c-0.179,1.662 -0.308,3.34 -0.41,5.028zm-0.173,4.141c-0.016,0.858 -0.048,1.718 -0.048,2.576c0,0.861 0.032,1.726 0.048,2.592c-0.709,-0.86 -1.393,-1.721 -2.06,-2.587c0.668,-0.86 1.351,-1.721 2.06,-2.581zm0.173,9.314c0.102,1.683 0.231,3.36 0.409,5.022c-3.339,-0.603 -6.383,-1.35 -9.078,-2.213c1.398,-2.441 3.006,-4.932 4.84,-7.44c1.209,1.549 2.484,3.093 3.829,4.631zm11.411,11.416c1.533,1.345 3.076,2.63 4.609,3.829c-2.512,1.839 -5.001,3.463 -7.411,4.854c-0.866,-2.702 -1.613,-5.752 -2.21,-9.091c1.656,0.178 3.329,0.307 5.012,0.408zm4.152,0.173c0.866,0.021 1.731,0.048 2.597,0.048c0.855,0 1.716,-0.026 2.576,-0.048c-0.86,0.709 -1.727,1.397 -2.587,2.06c-0.86,-0.662 -1.726,-1.351 -2.586,-2.06zm9.324,-0.173c1.678,-0.102 3.355,-0.23 5.012,-0.408c-0.603,3.345 -1.345,6.394 -2.216,9.094c-2.403,-1.394 -4.894,-3.018 -7.41,-4.856c1.538,-1.2 3.076,-2.485 4.614,-3.83zm11.407,-11.416c1.354,-1.544 2.646,-3.084 3.845,-4.62c1.828,2.507 3.437,4.993 4.834,7.433c-2.699,0.86 -5.743,1.61 -9.082,2.21c0.176,-1.662 0.305,-3.34 0.403,-5.023zm0.176,-4.13c0.021,-0.871 0.049,-1.742 0.049,-2.608c0,-0.86 -0.027,-1.721 -0.049,-2.581c0.716,0.871 1.409,1.737 2.076,2.605c-0.661,0.855 -1.36,1.718 -2.076,2.584zm-0.172,-9.33c-0.103,-1.688 -0.231,-3.361 -0.408,-5.023c3.345,0.603 6.399,1.35 9.104,2.216c-1.365,2.382 -2.984,4.875 -4.855,7.442c-1.217,-1.549 -2.496,-3.097 -3.841,-4.635zm-18.149,-33.18c3.012,0 6.195,3.977 8.685,10.616c-2.823,1.597 -5.732,3.5 -8.685,5.689c-2.947,-2.189 -5.867,-4.092 -8.69,-5.689c2.495,-6.639 5.673,-10.616 8.69,-10.616zm-29.41,25.414c-3.447,-7.539 -3.877,-13.406 -1.183,-16.101c1.162,-1.162 2.904,-1.75 5.168,-1.75c3.146,0 7.028,1.113 11.293,3.106c-1.237,3.7 -2.21,7.83 -2.909,12.202c-4.367,0.699 -8.497,1.672 -12.191,2.904c-0.055,-0.118 -0.124,-0.242 -0.178,-0.361zm-10.497,14.493c0,-3.017 3.985,-6.2 10.637,-8.695c1.619,2.853 3.517,5.768 5.689,8.701c-2.199,2.966 -4.103,5.878 -5.689,8.692c-6.652,-2.498 -10.637,-5.678 -10.637,-8.698zm14.482,32.347c-2.264,0 -4.006,-0.589 -5.168,-1.75c-2.694,-2.692 -2.264,-8.562 1.183,-16.099c0.054,-0.118 0.124,-0.242 0.177,-0.36c3.694,1.231 7.825,2.205 12.197,2.898c0.699,4.378 1.672,8.505 2.904,12.202c-4.265,1.995 -8.147,3.109 -11.293,3.109zm25.425,7.56c-3.017,0 -6.195,-3.974 -8.685,-10.612c2.818,-1.6 5.738,-3.504 8.685,-5.692c2.947,2.188 5.861,4.095 8.685,5.695c-2.49,6.636 -5.673,10.609 -8.685,10.609zm29.416,-25.403c3.441,7.534 3.866,13.4 1.178,16.093c-1.167,1.164 -2.904,1.75 -5.174,1.75c-3.146,0 -7.023,-1.113 -11.287,-3.108c1.231,-3.694 2.204,-7.824 2.903,-12.196c4.372,-0.699 8.502,-1.673 12.196,-2.904c0.06,0.117 0.124,0.241 0.184,0.365zm-0.145,-5.803c-1.613,-2.855 -3.512,-5.771 -5.685,-8.701c2.2,-2.968 4.104,-5.88 5.689,-8.695c6.647,2.498 10.632,5.679 10.632,8.695c0,3.023 -3.984,6.206 -10.636,8.701zm-29.271,-14.659c-3.286,0 -5.958,2.672 -5.958,5.958c0,3.289 2.673,5.964 5.958,5.964c3.286,0 5.964,-2.675 5.964,-5.964c0,-3.286 -2.678,-5.958 -5.964,-5.958zm0,9.376c-1.882,0 -3.415,-1.535 -3.415,-3.418c0,-1.882 1.533,-3.415 3.415,-3.415c1.882,0 3.415,1.533 3.415,3.415c0,1.883 -1.533,3.418 -3.415,3.418zm45,-3.418c0,-5.732 -5.389,-10.185 -13.374,-13.277c3.861,-8.432 4.42,-15.46 0.769,-19.115c-1.656,-1.659 -4.006,-2.498 -6.975,-2.498c-3.463,0 -7.62,1.151 -12.153,3.237c-3.092,-7.969 -7.539,-13.341 -13.267,-13.341c-5.727,0 -10.174,5.372 -13.267,13.342c-4.533,-2.086 -8.696,-3.237 -12.159,-3.237c-2.969,0 -5.313,0.839 -6.97,2.498c-3.538,3.539 -3.296,10.269 0.672,18.954c0.021,0.059 0.054,0.118 0.081,0.172c-7.974,3.091 -13.357,7.538 -13.357,13.265c0,5.738 5.388,10.186 13.374,13.28c-3.855,8.433 -4.42,15.464 -0.769,19.115c1.657,1.656 4.001,2.497 6.97,2.497c3.463,0 7.625,-1.153 12.159,-3.237c3.092,7.973 7.54,13.345 13.267,13.345c5.728,0 10.175,-5.372 13.262,-13.345c4.538,2.09 8.695,3.24 12.158,3.24c2.969,0 5.318,-0.844 6.975,-2.5c3.539,-3.539 3.302,-10.267 -0.667,-18.951c-0.026,-0.057 -0.059,-0.113 -0.086,-0.172c7.979,-3.092 13.357,-7.54 13.357,-13.272zm-19.58,-32.344c2.27,0 4.007,0.589 5.174,1.75c2.688,2.689 2.21,8.744 -1.361,16.461c-3.694,-1.234 -7.824,-2.21 -12.196,-2.904c-0.693,-4.372 -1.672,-8.502 -2.903,-12.202c4.262,-1.991 8.145,-3.105 11.286,-3.105zm-12.143,32.339c0,3.003 -0.129,5.9 -0.354,8.68c-0.684,0.72 -1.355,1.438 -2.076,2.161c-0.715,0.71 -1.431,1.403 -2.156,2.092c-2.775,0.227 -5.679,0.353 -8.68,0.353c-3.017,0 -5.921,-0.129 -8.701,-0.353c-0.715,-0.683 -1.43,-1.371 -2.14,-2.081c-0.715,-0.715 -1.403,-1.446 -2.092,-2.172c-0.226,-2.78 -0.355,-5.677 -0.355,-8.68c0,-3 0.129,-5.888 0.35,-8.666c0.688,-0.726 1.382,-1.455 2.097,-2.169c0.71,-0.71 1.425,-1.398 2.14,-2.082c2.78,-0.226 5.685,-0.355 8.701,-0.355c3.001,0 5.899,0.129 8.68,0.355c0.726,0.686 1.441,1.379 2.156,2.092c0.71,0.715 1.393,1.436 2.076,2.156c0.225,2.778 0.354,5.668 0.354,8.669zm-6.539,-18.141c-1.538,-1.342 -3.076,-2.627 -4.614,-3.832c2.522,-1.834 5.007,-3.46 7.416,-4.854c0.865,2.702 1.613,5.751 2.21,9.091c-1.656,-0.174 -3.334,-0.306 -5.012,-0.405zm-4.151,-0.173c-0.86,-0.019 -1.721,-0.045 -2.576,-0.045c-0.866,0 -1.731,0.027 -2.597,0.045c0.86,-0.707 1.726,-1.396 2.586,-2.062c0.866,0.667 1.727,1.355 2.587,2.062zm-9.325,0.173c-1.683,0.102 -3.355,0.234 -5.017,0.409c0.602,-3.342 1.35,-6.392 2.215,-9.091c2.409,1.393 4.899,3.017 7.416,4.851c-1.538,1.204 -3.082,2.489 -4.614,3.831zm-11.411,11.424c-1.35,1.541 -2.641,3.081 -3.834,4.614c-1.828,-2.506 -3.436,-4.993 -4.834,-7.432c2.694,-0.86 5.738,-1.608 9.078,-2.21c-0.179,1.662 -0.308,3.34 -0.41,5.028zm-0.173,4.141c-0.016,0.858 -0.048,1.718 -0.048,2.576c0,0.861 0.032,1.726 0.048,2.592c-0.709,-0.86 -1.393,-1.721 -2.06,-2.587c0.668,-0.86 1.351,-1.721 2.06,-2.581zm0.173,9.314c0.102,1.683 0.231,3.36 0.409,5.022c-3.339,-0.603 -6.383,-1.35 -9.078,-2.213c1.398,-2.441 3.006,-4.932 4.84,-7.44c1.209,1.549 2.484,3.093 3.829,4.631zm11.411,11.416c1.533,1.345 3.076,2.63 4.609,3.829c-2.512,1.839 -5.001,3.463 -7.411,4.854c-0.866,-2.702 -1.613,-5.752 -2.21,-9.091c1.656,0.178 3.329,0.307 5.012,0.408zm4.152,0.173c0.866,0.021 1.731,0.048 2.597,0.048c0.855,0 1.716,-0.026 2.576,-0.048c-0.86,0.709 -1.727,1.397 -2.587,2.06c-0.86,-0.662 -1.726,-1.351 -2.586,-2.06zm9.324,-0.173c1.678,-0.102 3.355,-0.23 5.012,-0.408c-0.603,3.345 -1.345,6.394 -2.216,9.094c-2.403,-1.394 -4.894,-3.018 -7.41,-4.856c1.538,-1.2 3.076,-2.485 4.614,-3.83zm11.407,-11.416c1.354,-1.544 2.646,-3.084 3.845,-4.62c1.828,2.507 3.437,4.993 4.834,7.433c-2.699,0.86 -5.743,1.61 -9.082,2.21c0.176,-1.662 0.305,-3.34 0.403,-5.023zm0.176,-4.13c0.021,-0.871 0.049,-1.742 0.049,-2.608c0,-0.86 -0.027,-1.721 -0.049,-2.581c0.716,0.871 1.409,1.737 2.076,2.605c-0.661,0.855 -1.36,1.718 -2.076,2.584zm-0.172,-9.33c-0.103,-1.688 -0.231,-3.361 -0.408,-5.023c3.345,0.603 6.399,1.35 9.104,2.216c-1.365,2.382 -2.984,4.875 -4.855,7.442c-1.217,-1.549 -2.496,-3.097 -3.841,-4.635zm-18.149,-33.18c3.012,0 6.195,3.977 8.685,10.616c-2.823,1.597 -5.732,3.5 -8.685,5.689c-2.947,-2.189 -5.867,-4.092 -8.69,-5.689c2.495,-6.639 5.673,-10.616 8.69,-10.616zm-29.41,25.414c-3.447,-7.539 -3.877,-13.406 -1.183,-16.101c1.162,-1.162 2.904,-1.75 5.168,-1.75c3.146,0 7.028,1.113 11.293,3.106c-1.237,3.7 -2.21,7.83 -2.909,12.202c-4.367,0.699 -8.497,1.672 -12.191,2.904c-0.055,-0.118 -0.124,-0.242 -0.178,-0.361zm-10.497,14.493c0,-3.017 3.985,-6.2 10.637,-8.695c1.619,2.853 3.517,5.768 5.689,8.701c-2.199,2.966 -4.103,5.878 -5.689,8.692c-6.652,-2.498 -10.637,-5.678 -10.637,-8.698zm14.482,32.347c-2.264,0 -4.006,-0.589 -5.168,-1.75c-2.694,-2.692 -2.264,-8.562 1.183,-16.099c0.054,-0.118 0.124,-0.242 0.177,-0.36c3.694,1.231 7.825,2.205 12.197,2.898c0.699,4.378 1.672,8.505 2.904,12.202c-4.265,1.995 -8.147,3.109 -11.293,3.109zm25.425,7.56c-3.017,0 -6.195,-3.974 -8.685,-10.612c2.818,-1.6 5.738,-3.504 8.685,-5.692c2.947,2.188 5.861,4.095 8.685,5.695c-2.49,6.636 -5.673,10.609 -8.685,10.609zm29.416,-25.403c3.441,7.534 3.866,13.4 1.178,16.093c-1.167,1.164 -2.904,1.75 -5.174,1.75c-3.146,0 -7.023,-1.113 -11.287,-3.108c1.231,-3.694 2.204,-7.824 2.903,-12.196c4.372,-0.699 8.502,-1.673 12.196,-2.904c0.06,0.117 0.124,0.241 0.184,0.365zm-0.145,-5.803c-1.613,-2.855 -3.512,-5.771 -5.685,-8.701c2.2,-2.968 4.104,-5.88 5.689,-8.695c6.647,2.498 10.632,5.679 10.632,8.695c0,3.023 -3.984,6.206 -10.636,8.701z"/>
    </svg>
   </g>
   <text xml:space="preserve" text-anchor="start" font-family="'Bodoni Moda'" font-size="139" stroke-width="0" id="svg_313" y="164.05771" x="7" fill="#2b79a6">DreamS</text>
   <text xml:space="preserve" text-anchor="start" font-family="'Bodoni Moda'" font-size="139" stroke-width="0" id="svg_304" y="164.05771" x="662.04843" fill="#2b79a6">Bank</text>
  </g>
 </g>
</svg>